# xmcd
#
# Track frame offsets:
#	150
#	17578
#	36085
#	49685
#	66478
#	87148
#	102903
#	121710
#	136790
#	155955
#	187333
#
# Disc length: 2743 seconds
#
# Revision: 3
# Processed by: cddbd v1.5.2PL0 Copyright (c) Steve Scherf et al.
# Submitted via: EasyCDDAExtractor 15.3.0.1
#
DISCID=930ab50b
DTITLE=Mijares - Maria Bonita
DYEAR=1992
DGENRE=Latin
TTITLE0=Maria Bonita
TTITLE1=Ella, Cuando Vivas Conmigo, Que Bonito Amor
TTITLE2=Quizas, Quizas, Quizas...
TTITLE3=La Malagueña
TTITLE4=Ansiedad
TTITLE5=Palabras De Mujer
TTITLE6=Noche De Ronda
TTITLE7=Piel Canela
TTITLE8=Mujer
TTITLE9=La Media Vuelta, Retirada, Amaneci En Tus Brazos
TTITLE10=Cucurrucucu Paloma
EXTD=
EXTT0=
EXTT1=
EXTT2=
EXTT3=
EXTT4=
EXTT5=
EXTT6=
EXTT7=
EXTT8=
EXTT9=
EXTT10=
PLAYORDER=
